<svg width="358" height="308" viewBox="0 0 358 308" fill="none" xmlns="http://www.w3.org/2000/svg">
<path d="M345.907 65.7672H356.447L286.067 307.167H273.147L217.387 84.8072L151.087 307.167H138.167L78.667 65.7672H89.207L144.967 297.307L213.647 65.7672H221.467L279.947 297.987L345.907 65.7672Z" fill="#09090B"/>
<path d="M274.708 14.6H285.248L214.868 256H201.948L146.188 33.64L79.8883 256H66.9683L7.46829 14.6H18.0083L73.7683 246.14L142.448 14.6H150.268L208.748 246.82L274.708 14.6Z" fill="#09090B"/>
<path d="M232 165L234 151L239.5 173L236.5 182L232 165Z" fill="#FAFAFA"/>
<path d="M178.5 184L181 172.5L187 196.5L183 201L178.5 184Z" fill="#FAFAFA"/>
</svg>
