<svg width="500" height="500" viewBox="0 0 500 500" fill="none" xmlns="http://www.w3.org/2000/svg">
<rect width="500" height="500" fill="#FAFAFA"/>
<path d="M416.907 125.767H427.447L357.067 367.167H344.147L288.387 144.807L222.087 367.167H209.167L149.667 125.767H160.207L215.967 357.307L284.647 125.767H292.467L350.947 357.987L416.907 125.767Z" fill="#09090B"/>
<path d="M345.708 74.6H356.248L285.868 316H272.948L217.188 93.64L150.888 316H137.968L78.4683 74.6H89.0083L144.768 306.14L213.448 74.6H221.268L279.748 306.82L345.708 74.6Z" fill="#09090B"/>
<path d="M303 225L305 211L310.5 233L307.5 242L303 225Z" fill="#FAFAFA"/>
<path d="M249.5 244L252 232.5L258 256.5L254 261L249.5 244Z" fill="#FAFAFA"/>
<path d="M165.369 415.96H166.113L161.145 433H160.233L156.297 417.304L151.617 433H150.705L146.505 415.96H147.249L151.185 432.304L156.033 415.96H156.585L160.713 432.352L165.369 415.96ZM184.343 416.584H176.159V424H184.271V424.624H176.159V432.376H184.751L184.631 433H175.439V415.96H184.343V416.584ZM192.527 433L199.439 415.96H200.135L206.759 433H205.991L204.023 427.864H195.359L193.295 433H192.527ZM195.623 427.216H203.759L199.799 416.872L195.623 427.216ZM216.266 433V415.96H217.01V432.352H225.29L225.17 433H216.266ZM241.404 415.96L241.356 416.584H235.812V433H235.068V416.584H229.404V415.96H241.404ZM250.344 433V415.96H251.088V423.976H261.984V415.96H262.728V433H261.984V424.648H251.088V433H250.344ZM303.002 415.96H303.746L298.778 433H297.866L293.93 417.304L289.25 433H288.338L284.138 415.96H284.882L288.818 432.304L293.666 415.96H294.218L298.346 432.352L303.002 415.96ZM313.073 433V415.96H313.817V433H313.073ZM329.367 433.168C327.623 433.168 326.247 432.752 325.239 431.92C324.231 431.088 323.623 429.776 323.415 427.984L324.135 427.912C324.423 429.56 324.967 430.728 325.767 431.416C326.583 432.104 327.799 432.448 329.415 432.448C330.759 432.448 331.823 432.12 332.607 431.464C333.391 430.792 333.783 429.896 333.783 428.776C333.783 427.976 333.623 427.344 333.303 426.88C332.999 426.416 332.511 426.048 331.839 425.776C331.167 425.504 330.295 425.264 329.223 425.056C328.327 424.88 327.519 424.64 326.799 424.336C326.079 424.032 325.503 423.576 325.071 422.968C324.655 422.344 324.447 421.488 324.447 420.4C324.447 419.504 324.655 418.704 325.071 418C325.503 417.296 326.087 416.744 326.823 416.344C327.575 415.928 328.431 415.72 329.391 415.72C330.767 415.72 331.887 416.096 332.751 416.848C333.631 417.584 334.167 418.688 334.359 420.16L333.687 420.256C333.479 418.928 333.023 417.96 332.319 417.352C331.615 416.744 330.639 416.44 329.391 416.44C328.127 416.44 327.111 416.8 326.343 417.52C325.575 418.24 325.191 419.2 325.191 420.4C325.191 421.28 325.359 421.984 325.695 422.512C326.031 423.024 326.511 423.416 327.135 423.688C327.759 423.96 328.511 424.184 329.391 424.36C330.639 424.6 331.639 424.896 332.391 425.248C333.143 425.584 333.687 426.032 334.023 426.592C334.359 427.152 334.527 427.88 334.527 428.776C334.527 429.672 334.311 430.448 333.879 431.104C333.447 431.76 332.839 432.272 332.055 432.64C331.287 432.992 330.391 433.168 329.367 433.168ZM353.148 416.584H344.964V424H353.076V424.624H344.964V432.376H353.556L353.436 433H344.244V415.96H353.148V416.584Z" fill="#09090B"/>
</svg>
