<svg width="500" height="500" viewBox="0 0 500 500" fill="none" xmlns="http://www.w3.org/2000/svg">
<rect width="500" height="500" fill="#09090B"/>
<path d="M416.907 125.767H427.447L357.067 367.167H344.147L288.387 144.807L222.087 367.167H209.167L149.667 125.767H160.207L215.967 357.307L284.647 125.767H292.467L350.947 357.987L416.907 125.767Z" fill="#FAFAFA"/>
<path d="M345.708 74.6H356.248L285.868 316H272.948L217.188 93.64L150.888 316H137.968L78.4683 74.6H89.0083L144.768 306.14L213.448 74.6H221.268L279.748 306.82L345.708 74.6Z" fill="#FAFAFA"/>
<path d="M303 225L305 211L310.5 233L307.5 242L303 225Z" fill="#09090B"/>
<path d="M249.5 244L252 232.5L258 256.5L254 261L249.5 244Z" fill="#09090B"/>
<path d="M163.369 415.96H164.113L159.145 433H158.233L154.297 417.304L149.617 433H148.705L144.505 415.96H145.249L149.185 432.304L154.033 415.96H154.585L158.713 432.352L163.369 415.96ZM182.343 416.584H174.159V424H182.271V424.624H174.159V432.376H182.751L182.631 433H173.439V415.96H182.343V416.584ZM190.527 433L197.439 415.96H198.135L204.759 433H203.991L202.023 427.864H193.359L191.295 433H190.527ZM193.623 427.216H201.759L197.799 416.872L193.623 427.216ZM214.266 433V415.96H215.01V432.352H223.29L223.17 433H214.266ZM239.404 415.96L239.356 416.584H233.812V433H233.068V416.584H227.404V415.96H239.404ZM248.344 433V415.96H249.088V423.976H259.984V415.96H260.728V433H259.984V424.648H249.088V433H248.344ZM301.002 415.96H301.746L296.778 433H295.866L291.93 417.304L287.25 433H286.338L282.138 415.96H282.882L286.818 432.304L291.666 415.96H292.218L296.346 432.352L301.002 415.96ZM311.073 433V415.96H311.817V433H311.073ZM327.367 433.168C325.623 433.168 324.247 432.752 323.239 431.92C322.231 431.088 321.623 429.776 321.415 427.984L322.135 427.912C322.423 429.56 322.967 430.728 323.767 431.416C324.583 432.104 325.799 432.448 327.415 432.448C328.759 432.448 329.823 432.12 330.607 431.464C331.391 430.792 331.783 429.896 331.783 428.776C331.783 427.976 331.623 427.344 331.303 426.88C330.999 426.416 330.511 426.048 329.839 425.776C329.167 425.504 328.295 425.264 327.223 425.056C326.327 424.88 325.519 424.64 324.799 424.336C324.079 424.032 323.503 423.576 323.071 422.968C322.655 422.344 322.447 421.488 322.447 420.4C322.447 419.504 322.655 418.704 323.071 418C323.503 417.296 324.087 416.744 324.823 416.344C325.575 415.928 326.431 415.72 327.391 415.72C328.767 415.72 329.887 416.096 330.751 416.848C331.631 417.584 332.167 418.688 332.359 420.16L331.687 420.256C331.479 418.928 331.023 417.96 330.319 417.352C329.615 416.744 328.639 416.44 327.391 416.44C326.127 416.44 325.111 416.8 324.343 417.52C323.575 418.24 323.191 419.2 323.191 420.4C323.191 421.28 323.359 421.984 323.695 422.512C324.031 423.024 324.511 423.416 325.135 423.688C325.759 423.96 326.511 424.184 327.391 424.36C328.639 424.6 329.639 424.896 330.391 425.248C331.143 425.584 331.687 426.032 332.023 426.592C332.359 427.152 332.527 427.88 332.527 428.776C332.527 429.672 332.311 430.448 331.879 431.104C331.447 431.76 330.839 432.272 330.055 432.64C329.287 432.992 328.391 433.168 327.367 433.168ZM351.148 416.584H342.964V424H351.076V424.624H342.964V432.376H351.556L351.436 433H342.244V415.96H351.148V416.584Z" fill="#FAFAFA"/>
</svg>
